<svg width="483" height="241" viewBox="0 0 483 241" fill="none" xmlns="http://www.w3.org/2000/svg">
<g opacity="0.1">
<path fill-rule="evenodd" clip-rule="evenodd" d="M335.331 87.3814H270.663L250.682 148.87L302.994 186.869L355.318 148.87L335.331 87.3814ZM242 151.689L265.302 80H340.692L364 151.689L302.994 196L242 151.689Z" fill="#058527"/>
<path fill-rule="evenodd" clip-rule="evenodd" d="M341.077 79.1234H264.929L241.395 151.471L303 196.191L364.605 151.471L341.077 79.1234ZM233 154.196L259.752 72H346.254L373 154.196L303 205L233 154.196Z" fill="#058527"/>
<path fill-rule="evenodd" clip-rule="evenodd" d="M346.816 70.8714H259.184L232.091 154.078L302.997 205.496L373.903 154.078L346.816 70.8714ZM224 156.704L254.179 64H351.815L382 156.704L302.997 214L224 156.704Z" fill="#058527"/>
<path fill-rule="evenodd" clip-rule="evenodd" d="M351.789 62.6154H253.222L222.754 156.684L302.503 214.816L382.252 156.684L351.789 62.6154ZM215 159.211L248.429 56H356.577L390 159.211L302.503 223L215 159.211Z" fill="#058527"/>
<path fill-rule="evenodd" clip-rule="evenodd" d="M357.522 54.3655H247.472L213.471 159.287L302.5 224.124L391.529 159.287L357.522 54.3655ZM206 161.714L242.865 48H362.129L399 161.714L302.5 232L206 161.714Z" fill="#058527"/>
<path fill-rule="evenodd" clip-rule="evenodd" d="M363.265 46.1155H241.735L204.176 161.884L302.497 233.432L400.824 161.884L363.265 46.1155ZM197 164.219L237.304 40H367.701L408 164.219L302.497 241L197 164.219Z" fill="#058527"/>
<path fill-rule="evenodd" clip-rule="evenodd" d="M369.012 37.8611H235.994L194.88 164.493L302.497 242.756L410.12 164.493L369.012 37.8611ZM188 166.724L231.739 32H373.261L417 166.724L302.497 250L188 166.724Z" fill="#058527"/>
<path fill-rule="evenodd" clip-rule="evenodd" d="M374.749 30.6122H230.251L185.584 168.089L302.497 253.062L419.416 168.089L374.749 30.6122ZM179 170.233L226.173 25H378.821L426 170.233L302.497 260L179 170.233Z" fill="#058527"/>
<path fill-rule="evenodd" clip-rule="evenodd" d="M380.495 22.3523H224.511L176.297 170.7L302.5 262.374L428.708 170.7L380.495 22.3523ZM170 172.746L220.616 17H384.384L435 172.746L302.5 269L170 172.746Z" fill="#058527"/>
<path fill-rule="evenodd" clip-rule="evenodd" d="M386.235 14.1095H218.765L167 173.304L302.5 271.687L438 173.304L386.235 14.1095ZM161 175.251L215.054 9H389.946L444 175.251L302.5 278L161 175.251Z" fill="#058527"/>
<path fill-rule="evenodd" clip-rule="evenodd" d="M391.978 5.85546H213.016L157.702 175.9L302.5 280.998L447.298 175.9L391.978 5.85546ZM152 177.755L209.494 1H395.5L453 177.755L302.5 287L152 177.755Z" fill="#058527"/>
<path fill-rule="evenodd" clip-rule="evenodd" d="M397.729 -2.40979H207.282L148.415 178.503L302.5 290.316L456.597 178.503L397.729 -2.40979ZM143 180.266L203.938 -7H401.068L462 180.266L302.5 296L143 180.266Z" fill="#058527"/>
<path fill-rule="evenodd" clip-rule="evenodd" d="M403.465 -10.6522H201.535L139.121 181.107L302.497 299.627L465.879 181.107L403.465 -10.6522ZM134 182.766L198.369 -15H406.631L471 182.766L302.497 305L134 182.766Z" fill="#058527"/>
<path fill-rule="evenodd" clip-rule="evenodd" d="M409.215 -18.9058H195.791L129.822 183.718L302.503 308.944L475.183 183.718L409.215 -18.9058ZM126.206 186.148L125 185.273L192.809 -23H412.203L480 185.273L302.503 314L126.206 186.148Z" fill="#058527"/>
<path fill-rule="evenodd" clip-rule="evenodd" d="M414.949 -27.1538H190.045L120.523 186.31L302.497 318.25L484.471 186.31L414.949 -27.1538ZM116 187.784L187.241 -31H417.747L489 187.784L302.497 323L116 187.784Z" fill="#058527"/>
<path fill-rule="evenodd" clip-rule="evenodd" d="M420.7 -34.4131H184.3L111.23 189.921L302.5 328.561L493.77 189.921L420.7 -34.4131ZM107 191.286L181.68 -38H423.32L498 191.286L302.5 333L107 191.286Z" fill="#058527"/>
<path fill-rule="evenodd" clip-rule="evenodd" d="M426.639 -42.6666H179.361L102.932 192.523L302.997 337.872L503.068 192.523L426.639 -42.6666ZM99 193.795L176.937 -46H429.063L507 193.795L302.997 342L99 193.795Z" fill="#058527"/>
<path fill-rule="evenodd" clip-rule="evenodd" d="M432.382 -50.9087H173.612L93.6278 195.121L302.997 347.183L512.372 195.121L432.382 -50.9087ZM90.9041 196.963L90 196.301L171.378 -54H434.628L516 196.301L302.997 351L90.9041 196.963Z" fill="#058527"/>
<path fill-rule="evenodd" clip-rule="evenodd" d="M438.124 -59.1678H167.876L84.3463 197.723L303 356.494L521.66 197.723L438.124 -59.1678ZM81 198.806L165.814 -62H440.191L525 198.806L303 360L81 198.806Z" fill="#058527"/>
<path fill-rule="evenodd" clip-rule="evenodd" d="M530.958 200.331L443.873 -67.4154H162.133L75.0417 200.331L303 365.811L530.958 200.331ZM72.7604 201.873L72 201.321L159.955 -69.1078L160.249 -70H445.751L534 201.321L303.76 368.453L303 369L72.7604 201.873Z" fill="#058527"/>
<path fill-rule="evenodd" clip-rule="evenodd" d="M449.618 -75.6688H156.382L65.7484 202.926L303.003 375.116L540.252 202.926L449.618 -75.6688ZM63 203.824L154.688 -78H451.312L543 203.824L303.003 378L63 203.824Z" fill="#058527"/>
<path fill-rule="evenodd" clip-rule="evenodd" d="M455.357 -83.9222H150.637L56.4434 205.539L303 384.433L549.551 205.539L455.357 -83.9222ZM54.6109 206.777L54 206.339L148.885 -85.2805L149.121 -86H456.879L551.764 205.62L552 206.339L303 387L54.6109 206.777Z" fill="#058527"/>
<path fill-rule="evenodd" clip-rule="evenodd" d="M461.108 -91.1755H144.892L47.1499 209.135L302.997 394.738L558.85 209.135L461.108 -91.1755ZM45.536 210.223L45 209.831L143.353 -92.3669L143.566 -93H462.434L560.798 209.198L561 209.831L302.997 397L45.536 210.223Z" fill="#058527"/>
<path fill-rule="evenodd" clip-rule="evenodd" d="M568.132 211.741L466.85 -99.4116H139.156L37.8677 211.741L303 404.049L568.132 211.741ZM36.4727 212.679L36 212.339L137.83 -100.448L138.009 -101H467.997L569.821 211.792L570 212.339L303.467 405.655L303 406L36.4727 212.679Z" fill="#058527"/>
<path fill-rule="evenodd" clip-rule="evenodd" d="M472.595 -107.671H133.405L28.5624 214.343L302.997 413.366L577.432 214.343L472.595 -107.671ZM27.3863 215.138L27 214.85L132.292 -108.534L132.436 -109H473.558L578.856 214.395L579 214.85L302.997 415L27.3863 215.138Z" fill="#058527"/>
<path fill-rule="evenodd" clip-rule="evenodd" d="M586.732 216.947L478.341 -115.924H127.665L19.2685 216.947L303 422.665L586.732 216.947ZM18.3229 217.586L18 217.35L126.76 -116.632L126.881 -117H479.125L587.879 216.982L588 217.35L303.323 423.764L303 424L18.3229 217.586Z" fill="#058527"/>
<path fill-rule="evenodd" clip-rule="evenodd" d="M596.02 220.161L484.081 -124.181H121.919L9.97458 220.161L302.994 432.974L596.02 220.161ZM9.24797 220.651L9 220.479L121.319 -125H484.681L597 220.479L303.236 433.821L302.994 434L9.24797 220.651Z" fill="#058527"/>
<path fill-rule="evenodd" clip-rule="evenodd" d="M115.753 -133L115.69 -132.798L0 222.981L0.173024 223.108L303 443L303.167 442.873L606 222.981L605.942 222.785L490.253 -133H115.753ZM0.674794 222.762L116.18 -132.429H489.826L605.325 222.762L303 442.279L0.674794 222.762Z" fill="#058527"/>
</g>
</svg>
